<svg xmlns="http://www.w3.org/2000/svg" width="560" height="405" viewBox="0 0 560 405" fill="none">
<rect x="309.73" y="195.766" width="63.5732" height="116.046" rx="6" fill="#ff814b"/>
<path d="M30.4829 338.45C30.03 336.574 27.3609 336.574 26.9079 338.45L26.3212 340.881C26.1593 341.552 25.6357 342.075 24.9652 342.237L22.5345 342.824C20.6581 343.277 20.6581 345.946 22.5345 346.399L24.9652 346.985C25.6357 347.147 26.1593 347.671 26.3212 348.341L26.9079 350.772C27.3609 352.649 30.03 352.649 30.4829 350.772L31.0697 348.341C31.2316 347.671 31.7551 347.147 32.4257 346.985L34.8563 346.399C36.7328 345.946 36.7328 343.277 34.8563 342.824L32.4257 342.237C31.7551 342.075 31.2316 341.552 31.0697 340.881L30.4829 338.45Z" fill="#f26122"/>
<path d="M294.719 45.1733C294.176 42.7964 290.973 42.7964 290.429 45.1733L289.725 48.2521C289.531 49.1015 288.903 49.7646 288.098 49.9697L285.181 50.7129C282.93 51.2866 282.93 54.6675 285.181 55.2413L288.098 55.9845C288.903 56.1895 289.531 56.8527 289.725 57.7021L290.429 60.7808C290.973 63.1577 294.176 63.1577 294.719 60.7808L295.423 57.7021C295.618 56.8527 296.246 56.1895 297.051 55.9845L299.967 55.2413C302.219 54.6675 302.219 51.2866 299.967 50.7129L297.051 49.9697C296.246 49.7646 295.618 49.1015 295.423 48.2521L294.719 45.1733Z" fill="#f26122"/>
<path d="M139.914 390.953C139.914 397.119 144.969 402.118 151.204 402.118C157.439 402.118 162.494 397.119 162.494 390.953C162.494 384.788 157.439 379.789 151.204 379.789C144.969 379.789 139.914 384.788 139.914 390.953Z" fill="#4d4d4d"/>
<path d="M166.604 312.876H141.541C140.634 312.876 139.899 312.116 139.899 311.176C139.899 310.237 140.634 309.477 141.541 309.477H166.604C167.512 309.477 168.246 310.237 168.246 311.176C168.246 312.116 167.512 312.876 166.604 312.876Z" fill="#706f6f"/>
<path d="M148.774 387.493C147.931 387.493 147.249 386.746 147.249 385.823V320.611C147.249 319.242 146.7 317.967 145.734 317.096L139.607 311.589C138.953 311.008 138.859 309.95 139.398 309.245C139.929 308.529 140.895 308.425 141.548 309.017L147.675 314.524C149.351 316.027 150.308 318.247 150.308 320.622V385.834C150.308 386.757 149.626 387.503 148.783 387.503L148.774 387.493Z" fill="#706f6f"/>
<path d="M179.894 397.814C180.844 395.416 179.643 392.712 177.211 391.774C174.778 390.837 172.036 392.021 171.085 394.419C170.134 396.817 171.335 399.522 173.768 400.459C176.2 401.397 178.943 400.212 179.894 397.814Z" fill="#eaecf0"/>
<path d="M184.088 384.934H224.104V348.928H184.088V384.934Z" fill="#f26122"/>
<path d="M150.308 384.934H196.04V330.067H150.308V384.934Z" fill="#ff814b"/>
<path d="M149.33 388.504H226.675C227.614 388.504 228.375 387.743 228.375 386.804C228.375 385.866 227.614 385.105 226.675 385.105H149.33C148.391 385.105 147.63 385.866 147.63 386.804C147.63 387.743 148.391 388.504 149.33 388.504Z" fill="#706f6f"/>
<path d="M147.274 388.488H177.546V384.807H147.274V388.488Z" fill="#706f6f"/>
<path d="M175.847 388.374C174.909 388.374 174.149 387.625 174.149 386.699V321.306C174.149 319.902 173.537 318.602 172.461 317.739L165.637 312.217C164.909 311.634 164.804 310.573 165.405 309.856C165.996 309.138 167.072 309.034 167.799 309.627L174.624 315.149C176.491 316.657 177.556 318.904 177.556 321.306V386.699C177.556 387.625 176.797 388.374 175.858 388.374H175.847Z" fill="#706f6f"/>
<path opacity="0.6" d="M261.708 216.95L51.3984 162.324L137.676 105.949H357.156L421.738 162.324L261.708 216.95Z" fill="#ceced1"/>
<path d="M422.748 308.778H209.828V167L293.079 161.954L356.806 105.949L422.748 161.954V308.778Z" fill="#eaecf0"/>
<path d="M293.583 161.445H52.4082V308.774H293.583V161.445Z" fill="#eaecf0"/>
<rect x="82.6807" y="195.758" width="72.6552" height="113.019" fill="#ceced1"/>
<path d="M155.336 195.758H84.699C72.9935 195.758 72.59 207.362 72.5898 211.903H155.336V195.758Z" fill="#f26122"/>
<path d="M155.337 211.903V195.758C141.613 195.758 138.855 206.522 139.191 211.903H155.337Z" fill="#eaecf0"/>
<rect x="178.545" y="195.758" width="72.6552" height="113.019" fill="#ceced1"/>
<path d="M251.2 195.758H180.563C168.858 195.758 168.454 207.362 168.454 211.903H251.2V195.758Z" fill="#f26122"/>
<path d="M251.201 211.903V195.758C237.477 195.758 234.719 206.522 235.056 211.903H251.201Z" fill="#eaecf0"/>
<path d="M435.866 29.2639H326.884C326.884 29.2639 337.685 0 354.319 0C370.953 0 376.156 20.1977 376.156 20.1977C376.156 20.1977 387.374 9.22506 396.594 9.22506C405.814 9.22506 413.826 23.7246 413.826 23.7246C413.826 23.7246 426.85 15.9294 435.866 29.2639Z" fill="white"/>
<path d="M509.532 88.7836H459.077C459.077 88.7836 470.349 72.6484 479.229 72.6484C488.11 72.6484 490.735 83.4087 490.735 83.4087C490.735 83.4087 497 78.3893 502.811 79.2886C508.622 80.1879 509.522 88.794 509.522 88.794L509.532 88.7836Z" fill="white"/>
<path d="M172.494 52.4641H73.6025C73.6025 52.4641 87.1502 22.1762 101.635 20.2879C116.12 18.3995 123.054 42.7878 123.054 42.7878C123.054 42.7878 132.394 34.1676 139.743 34.1676C147.092 34.1676 152.759 45.5296 152.759 45.5296C152.759 45.5296 167.456 37.7522 172.494 52.4748V52.4641Z" fill="white"/>
<g filter="url(#filter0_d_6818_146994)">
<path fill-rule="evenodd" clip-rule="evenodd" d="M415.946 133.773H433.851C440.851 133.773 445.539 138.688 445.539 145.999V162.872C445.539 170.16 440.851 175.075 433.851 175.075H415.946C408.946 175.075 404.237 170.16 404.237 162.872V145.999C404.237 138.688 408.946 133.773 415.946 133.773ZM423.711 160.599L433.52 150.79C434.222 150.088 434.222 148.952 433.52 148.229C432.818 147.527 431.662 147.527 430.959 148.229L422.431 156.758L418.817 153.144C418.115 152.442 416.958 152.442 416.256 153.144C415.554 153.846 415.554 154.982 416.256 155.705L421.171 160.599C421.522 160.95 421.976 161.115 422.431 161.115C422.906 161.115 423.36 160.95 423.711 160.599Z" fill="white"/>
</g>
<path d="M416.344 153.141L422.753 159.123L433.007 148.441" stroke="#f26122" stroke-width="5" stroke-linecap="round" stroke-linejoin="round" fill="#706f6f"/>
<g filter="url(#filter1_d_6818_146994)">
<circle cx="172.567" cy="101.69" r="25.6354" fill="white"/>
</g>
<path fill-rule="evenodd" clip-rule="evenodd" d="M163.346 100.073C163.346 95.0448 167.709 90.9805 172.988 90.9805C178.281 90.9805 182.645 95.0448 182.645 100.073C182.645 102.607 181.688 104.96 180.113 106.954C178.375 109.153 176.233 111.069 173.822 112.574C173.271 112.921 172.773 112.948 172.167 112.574C169.742 111.069 167.601 109.153 165.878 106.954C164.302 104.96 163.346 102.607 163.346 100.073ZM169.81 100.356C169.81 102.041 171.237 103.366 172.988 103.366C174.739 103.366 176.18 102.041 176.18 100.356C176.18 98.6851 174.739 97.2956 172.988 97.2956C171.237 97.2956 169.81 98.6851 169.81 100.356Z" fill="#f26122"/>
<g clip-path="url(#clip0_6818_146994)">
<path d="M103.349 275.366L111.758 277.063L113.066 270.429L113.529 268.096L111.409 267.669C111.409 267.669 111.378 267.669 111.367 267.669L105.109 266.398L103.339 275.376L103.349 275.366Z" fill="#EDB691"/>
<path d="M100.065 287.002C103.277 291.262 106.941 295.948 110.266 300.156C111.027 301.135 111.943 302.312 112.993 302.968C113.21 303.114 113.415 303.239 113.621 303.353C114.486 303.843 115.206 304.041 116.061 304.426L118.407 305.395L134.135 310.425L135.175 311.113C135.792 311.446 136.533 311.394 137.11 310.988L138.149 310.238C139.24 309.3 140.928 308.978 142.359 308.978H142.936L140.476 307.676L137.655 307.717C133.898 305.728 129.184 303.28 124.841 301.062C122.741 299.979 120.723 298.948 118.953 298.042C117.718 297.365 117.111 297.261 116.74 296.584C116.452 296.157 116.164 295.719 115.855 295.292C112.87 290.928 109.648 286.283 106.632 282.055L100.065 286.991V287.002Z" fill="#EDB691"/>
<path d="M115.958 403.638H138.561L138.5 403.045C138.325 401.482 137.336 400.108 135.875 399.274C135.268 398.92 134.578 398.66 133.847 398.524L124.429 396.754L117.121 397.993L116.329 401.857L115.968 403.649L115.958 403.638Z" fill="#f26122"/>
<path d="M81.25 403.639H94.25V403.171C94.25 401.494 93.2207 399.973 91.6047 399.13C91.2239 398.932 90.8121 398.776 90.3798 398.661L86.7876 397.713L81.7029 396.359L81.4147 401.057L81.2603 403.65L81.25 403.639Z" fill="#f26122"/>
<path d="M73.6025 394.461L81.2502 403.637L84.7601 401.45L87.1275 399.992L86.7775 397.7L85.8717 391.66L79.9121 389.066L74.9097 393.347L73.6025 394.461Z" fill="#f26122"/>
<path d="M83.9473 393.046C88.6717 395.379 92.7992 396.66 93.2418 395.942C93.2521 395.942 93.2521 395.921 93.2624 395.921C93.2727 395.9 93.283 395.89 93.283 395.858L106.983 364.478L111.574 353.959L112.191 352.542L112.356 351.022L113.519 340.138L113.539 339.961L115.958 317.225L97.8118 315.934L96.7723 348.356L97.5031 346.991L96.7208 349.918L96.7723 348.356L89.0834 362.791C89.0834 362.791 89.0114 362.926 88.8982 363.155L75.9805 387.391C75.61 388.162 79.1816 390.693 83.9473 393.046Z" fill="#bbc0c5"/>
<path d="M96.7207 349.919L97.503 346.992L96.7722 348.357L96.7207 349.919Z" fill="#bbc0c5"/>
<path d="M97.7911 324.704C99.2836 324.642 100.807 324.392 102.351 324.006C108.65 322.444 115.269 318.84 121.352 318.601C121.135 317.122 120.847 315.289 120.456 313.425C119.962 311.071 119.293 308.675 118.398 306.884C111.604 306.624 99.7571 306.905 99.7571 306.905C99.7571 306.905 98.5528 308.425 97.5235 310.904C96.1339 314.247 95.0841 319.32 97.7911 324.704Z" fill="#bbc0c5"/>
<path d="M113.92 269.031L106.767 270.2L104.466 255.796L112.422 254.495C114.465 254.161 116.399 255.564 116.73 257.641L117.703 263.728C118.105 266.247 116.41 268.624 113.92 269.031Z" fill="#EDB691"/>
<path d="M117.039 258.224C116.318 258.651 115.567 258.922 114.764 259.172C114.517 259.245 114.301 258.932 114.445 258.724C115.011 257.964 115.855 257.495 116.781 257.37C117.255 257.318 117.45 258.005 117.039 258.224Z" fill="#4d4d4d"/>
<path d="M108.495 256.453C107.682 258.734 108.135 260.984 109.494 261.473C110.852 261.963 112.613 260.525 113.426 258.245C114.239 255.964 113.786 253.714 112.427 253.225C111.069 252.735 109.308 254.172 108.495 256.453Z" fill="#4d4d4d"/>
<path d="M95.2897 304.632C95.3515 305.205 95.4956 305.715 95.7632 306.153C96.9263 308.194 100.313 309.017 107.569 309.579C114.383 310.11 120.065 309.517 120.528 307.725C120.538 307.684 120.549 307.642 120.549 307.59C120.549 307.559 120.549 307.527 120.549 307.496C120.528 306.413 120.415 301.757 119.89 296.31C119.386 291.04 118.49 285.02 116.946 280.771C114.63 274.439 105.233 271.335 101.908 276.553C95.2794 286.947 95.2897 304.101 95.2897 304.101H95.3C95.2692 304.267 95.2692 304.444 95.2897 304.622V304.632Z" fill="#f26122"/>
<path d="M120.538 307.738H120.569C120.569 307.738 120.569 307.665 120.569 307.508C120.569 307.539 120.569 307.571 120.569 307.602C120.569 307.644 120.559 307.686 120.548 307.738H120.538Z" fill="#bbc0c5"/>
<path d="M102.516 275.762C102.516 275.762 108.383 276.7 112.037 277.272C113.756 277.533 114.98 277.72 114.898 277.689C114.816 277.668 112.623 272.961 112.623 272.961C112.623 272.961 111.8 272.356 109.834 271.732C108.506 271.305 106.633 270.878 104.152 270.617L102.516 275.762Z" fill="#f26122"/>
<path d="M100.93 264.191L102.762 264.91L104.708 265.66L107.24 266.055L109.988 264.066L110.029 263.91L111.697 257.348L109.154 253.672L103.648 254.557C102.948 255.161 102.618 256.119 102.382 257.598C102.279 258.213 102.186 258.921 102.104 259.723C101.877 261.775 101.229 263.441 101.002 263.993C100.982 264.056 100.951 264.108 100.93 264.17C100.93 264.191 100.92 264.191 100.92 264.191H100.93Z" fill="#4d4d4d"/>
<path d="M109.144 263.419C109.957 264.242 111.151 264.388 111.799 263.731C112.448 263.075 112.314 261.878 111.49 261.044C110.677 260.222 109.483 260.076 108.835 260.732C108.186 261.388 108.32 262.586 109.144 263.419Z" fill="#EDB691"/>
<path d="M109.73 262.972C109.73 262.972 109.658 262.961 109.638 262.93C109.422 262.711 109.277 262.43 109.247 262.138C109.216 261.836 109.298 261.576 109.483 261.389C109.864 261.003 110.543 261.076 111.007 261.545C111.058 261.597 111.058 261.691 111.007 261.743C110.955 261.795 110.863 261.795 110.811 261.743C110.461 261.389 109.946 261.316 109.679 261.586C109.555 261.711 109.494 261.899 109.524 262.107C109.545 262.326 109.658 262.555 109.833 262.732C109.885 262.784 109.885 262.878 109.833 262.93C109.802 262.961 109.772 262.972 109.741 262.972H109.73Z" fill="#706f6f"/>
<path d="M101.27 270.712C101.589 270.806 101.949 270.712 102.299 270.493C102.958 270.847 103.76 271.045 104.615 271.045C105.51 271.045 106.354 270.816 107.034 270.431C109.514 271.233 111.974 270.462 112.53 268.702C112.839 267.754 112.232 266.348 111.223 265.119C110.873 264.682 110.471 264.265 110.029 263.911C109.401 263.39 108.722 262.974 108.042 262.755C106.55 262.266 106.087 263.64 105.016 264.171C105.026 263.734 105.006 263.328 104.944 262.963C104.8 262.057 104.44 261.411 103.884 261.255C102.958 260.995 101.805 262.151 101.012 263.984C100.992 264.046 100.961 264.099 100.94 264.161V264.182C100.786 264.557 100.642 264.973 100.528 265.4C99.808 268.015 100.137 270.389 101.28 270.712H101.27Z" fill="#4d4d4d"/>
<path d="M101.075 255.549L101.61 259.767V259.788L105.542 259.059L117.543 256.83L117.008 254.789C117.008 254.789 116.987 254.705 116.977 254.664C115.938 250.945 112.242 248.633 108.475 249.383L105.408 249.987L104.986 250.071C102.454 250.57 100.756 252.966 101.075 255.549Z" fill="#f26122"/>
<path d="M101.609 259.797L101.661 260.245V260.297C101.856 261.078 106.684 260.516 112.448 259.068C118.212 257.621 122.73 255.808 122.545 255.038L122.442 254.59L121.228 254.652V254.694C119.375 254.673 115.803 255.256 111.769 256.267C107.425 257.36 103.781 258.662 102.34 259.568L101.609 259.818V259.797Z" fill="#4d4d4d"/>
<path d="M101.609 259.766V259.787V259.808C101.723 260.245 103.297 260.266 105.696 259.943C107.528 259.683 109.833 259.235 112.335 258.599C118.109 257.152 122.638 255.34 122.442 254.569C122.319 254.048 120.126 254.121 116.977 254.663C115.392 254.923 113.57 255.308 111.645 255.798C109.216 256.402 107.023 257.079 105.315 257.704C103.04 258.537 101.609 259.308 101.609 259.766Z" fill="#f26122"/>
<path d="M115.073 302.226C115.073 302.226 115.093 302.299 115.114 302.33C115.639 303.091 118.603 301.914 121.722 299.706C124.789 297.529 126.879 295.165 126.446 294.363C126.446 294.342 126.436 294.332 126.426 294.321C125.901 293.55 122.936 294.738 119.818 296.946C116.822 299.07 114.764 301.372 115.073 302.237V302.226Z" fill="#706f6f"/>
<path d="M115.052 293.718C116.431 295.489 117.821 297.249 119.159 298.957C119.838 298.384 120.713 297.728 121.783 297.051C123.296 296.103 124.624 295.531 125.623 295.208C124.799 294.01 123.955 292.771 123.111 291.531L115.083 293.489L115.062 293.718H115.052Z" fill="#C7875C"/>
<path d="M109.844 286.886C111.501 289.084 113.282 291.406 115.073 293.708C116.452 295.478 117.831 297.238 119.179 298.947C119.468 299.321 119.756 299.676 120.034 300.04C120.795 301.019 121.712 302.196 122.772 302.852C123.945 303.633 124.789 303.842 125.839 304.31L144.16 310.955L145.149 311.559C146.229 311.997 147.516 310.976 148.576 310.111C149.41 309.424 150.544 309.308 151.625 309.288L153.422 309.278L150.777 307.372L149.081 306.714L147.526 306.872L146.651 307.372C146.044 307.716 145.303 307.726 144.696 307.372C139.498 304.425 133.631 300.446 128.731 297.926C127.496 297.249 126.889 297.145 126.518 296.478C126.23 296.051 125.942 295.635 125.643 295.208C124.83 293.999 123.976 292.77 123.132 291.531C120.898 288.292 118.613 285.011 116.411 281.949L109.854 286.886H109.844Z" fill="#EDB691"/>
<path d="M116.699 259.871L118.367 261.85C118.604 262.131 118.49 262.569 118.151 262.704L116.545 263.308L116.699 259.871Z" fill="#EDB691"/>
<path d="M104.522 286.645L108.351 293.289L115.062 302.246H115.083C114.764 301.382 116.833 299.07 119.828 296.945C122.957 294.737 125.911 293.55 126.436 294.32C126.446 294.331 126.457 294.352 126.457 294.362L126.477 294.341L115.834 278.75L104.533 286.645H104.522Z" fill="#f26122"/>
<path d="M116.246 261.15C116.514 261.15 116.73 260.851 116.73 260.483C116.73 260.115 116.514 259.816 116.246 259.816C115.979 259.816 115.763 260.115 115.763 260.483C115.763 260.851 115.979 261.15 116.246 261.15Z" fill="#706f6f"/>
<path d="M139.632 309.548C139.632 309.548 139.601 309.548 139.581 309.548L124.378 303.706C122.813 303.049 121.424 301.998 120.364 300.664L118.387 298.206C118.336 298.144 118.346 298.05 118.408 297.998C118.47 297.946 118.562 297.957 118.614 298.019L120.59 300.477C121.63 301.768 122.978 302.789 124.491 303.424L139.694 309.267C139.766 309.298 139.807 309.382 139.776 309.455C139.756 309.517 139.704 309.548 139.642 309.548H139.632Z" fill="#706f6f"/>
<path d="M128.021 297.716C128.021 297.716 127.969 297.716 127.949 297.695C127.938 297.695 126.436 296.872 124.758 296.789C124.676 296.789 124.614 296.716 124.624 296.633C124.624 296.549 124.686 296.487 124.779 296.497C126.528 296.581 128.031 297.403 128.093 297.435C128.165 297.476 128.186 297.56 128.155 297.632C128.124 297.685 128.083 297.705 128.031 297.705L128.021 297.716Z" fill="#706f6f"/>
<path d="M115.958 403.637H138.561L138.5 403.044C138.325 401.481 137.336 400.107 135.875 399.273C135.175 399.69 134.537 400.471 134.341 401.846H116.329L115.968 403.637H115.958Z" fill="white"/>
<path d="M73.6025 394.462L81.2502 403.638H94.2502V403.169C94.2502 401.492 93.2209 399.972 91.6049 399.128C90.8638 399.42 89.9992 400.065 89.5669 401.451H81.7545L81.4046 401.044L74.9097 393.348L73.6025 394.472V394.462Z" fill="white"/>
<path d="M106.952 338.7C108.537 342.637 109.772 346.719 110.616 350.885L111.131 353.448C111.131 353.281 111.11 353.104 111.11 352.937L111.244 354.01L111.131 353.448C111.151 353.895 111.172 354.333 111.193 354.781C111.903 369.445 112.582 400.565 112.582 400.565C112.953 401.325 117.101 401.044 122.021 399.909C127.023 398.742 130.934 397.149 130.801 396.305C130.801 396.305 130.801 396.295 130.801 396.284C130.265 392.806 128.124 368.56 127.023 355.27C126.941 354.27 126.838 353.26 126.714 352.26C126.55 350.906 126.364 349.563 126.148 348.23C124.954 340.908 125.109 335.763 120.158 312.881C119.2 308.423 102.433 316.214 102.433 316.214C100.941 322.38 103.617 330.378 106.962 338.7H106.952Z" fill="#bbc0c5"/>
<path d="M115.073 302.382C115.073 302.382 114.991 302.361 114.96 302.319L109.124 294.581C108.29 293.477 107.106 292.665 105.779 292.3L104.708 292.008C104.636 291.988 104.585 291.904 104.605 291.831C104.626 291.759 104.708 291.706 104.78 291.727L105.851 292.019C107.23 292.404 108.475 293.248 109.35 294.404L115.186 302.142C115.238 302.205 115.227 302.299 115.155 302.351C115.125 302.371 115.094 302.382 115.073 302.382Z" fill="#706f6f"/>
<path d="M116.401 279.732C116.401 279.732 116.298 279.701 116.277 279.659C116.277 279.659 115.793 278.805 114.805 277.795C114.795 277.795 114.785 277.774 114.774 277.774C113.817 276.816 112.736 276.035 111.542 275.473C110.863 275.139 110.122 274.869 109.34 274.681C109.257 274.66 109.216 274.587 109.237 274.504C109.257 274.421 109.329 274.379 109.412 274.4C110.215 274.598 110.976 274.869 111.676 275.212C112.891 275.795 114.002 276.587 114.98 277.566C114.99 277.566 115.001 277.587 115.011 277.597C116.03 278.628 116.514 279.482 116.524 279.524C116.565 279.597 116.534 279.68 116.473 279.722C116.452 279.732 116.421 279.743 116.401 279.743V279.732Z" fill="#706f6f"/>
<path d="M111.1 352.938C111.1 353.104 111.12 353.281 111.12 353.448L111.233 354.01L111.1 352.938Z" fill="#bbc0c5"/>
<path d="M111.243 355.428C111.171 355.428 111.11 355.376 111.099 355.292C111.099 355.219 110.461 348.439 108.032 342.003C105.984 336.587 103.761 330.39 101.414 323.589C99.2213 317.225 101.856 313.289 101.887 313.247C101.928 313.184 102.021 313.164 102.083 313.205C102.145 313.247 102.165 313.341 102.124 313.414C102.093 313.455 99.5507 317.267 101.692 323.485C104.038 330.286 106.262 336.472 108.31 341.899C110.76 348.377 111.388 355.199 111.398 355.272C111.398 355.355 111.346 355.428 111.264 355.428C111.264 355.428 111.264 355.428 111.254 355.428H111.243Z" fill="#706f6f"/>
<path d="M101.075 255.546L101.61 259.764V259.785V259.806C101.723 260.243 103.298 260.264 105.696 259.941C105.655 259.681 105.593 259.379 105.542 259.056C105.47 258.639 105.387 258.181 105.315 257.702C105.006 255.879 104.687 253.734 104.584 252.442C104.482 251.13 104.924 250.401 105.408 249.984L104.986 250.068C102.454 250.568 100.756 252.963 101.075 255.546Z" fill="#4d4d4d"/>
<path d="M112.356 257.754C112.294 257.754 112.232 257.713 112.212 257.64C112.191 257.557 112.242 257.484 112.315 257.463C112.335 257.463 114.723 256.88 115.866 256.078C116.998 255.286 116.843 254.724 116.843 254.713C116.823 254.64 116.864 254.557 116.936 254.526C117.008 254.505 117.09 254.536 117.121 254.62C117.132 254.651 117.368 255.38 116.041 256.317C114.857 257.15 112.49 257.723 112.397 257.754C112.387 257.754 112.376 257.754 112.366 257.754H112.356Z" fill="#4d4d4d"/>
<path d="M108.948 270.887C106.035 270.887 105.016 268.47 105.006 268.439C104.975 268.366 105.006 268.283 105.078 268.262C105.15 268.231 105.233 268.262 105.263 268.335C105.305 268.429 106.231 270.605 108.938 270.605C109.051 270.605 109.154 270.605 109.278 270.595C109.35 270.595 109.422 270.647 109.422 270.72C109.422 270.793 109.37 270.866 109.288 270.866C109.175 270.866 109.051 270.876 108.938 270.876L108.948 270.887Z" fill="#706f6f"/>
<path d="M102.897 270.889C102.897 270.889 102.866 270.889 102.855 270.889C100.817 270.181 100.797 267.91 100.797 267.889C100.797 267.816 100.859 267.754 100.931 267.754C101.003 267.754 101.064 267.816 101.064 267.889C101.064 267.973 101.085 269.993 102.938 270.628C103.01 270.649 103.051 270.733 103.02 270.806C103 270.868 102.948 270.899 102.886 270.899L102.897 270.889Z" fill="#706f6f"/>
<path d="M149.616 307.602C149.616 307.602 149.524 307.581 149.493 307.529C149.451 307.456 149.472 307.372 149.544 307.331C150.172 306.935 150.501 306.779 150.604 306.758C150.676 306.737 150.759 306.8 150.769 306.873C150.779 306.945 150.738 307.029 150.656 307.039C150.635 307.039 150.44 307.102 149.688 307.57C149.668 307.581 149.637 307.591 149.616 307.591V307.602Z" fill="#706f6f"/>
<path d="M148.484 307.33C148.432 307.33 148.381 307.299 148.36 307.247C148.319 307.174 148.36 307.091 148.422 307.049L149.112 306.685C149.184 306.643 149.266 306.685 149.307 306.747C149.348 306.82 149.307 306.903 149.246 306.945L148.556 307.31C148.556 307.31 148.515 307.33 148.494 307.33H148.484Z" fill="#706f6f"/>
<path d="M147.702 307.228C147.65 307.228 147.599 307.197 147.578 307.145C147.537 307.072 147.578 306.989 147.64 306.947L148.031 306.739C148.103 306.708 148.185 306.739 148.227 306.801C148.268 306.874 148.227 306.958 148.165 306.999L147.774 307.207C147.774 307.207 147.732 307.228 147.712 307.228H147.702Z" fill="#706f6f"/>
<path d="M135 310.998C135.721 311.467 136.946 312.091 137.604 312.414C137.893 312.55 138.201 312.643 138.521 312.664C139.231 312.716 140.507 312.821 140.466 312.81C141.063 312.925 140.96 312.237 140.414 311.977L140.188 311.862L138.953 311.258C138.953 311.258 138.943 311.258 138.922 311.237C138.798 311.144 138.356 310.769 138.325 310.415C138.274 310.019 138.654 309.873 138.675 309.852L137.924 309.467L137.059 309.977C136.421 309.394 135.68 308.696 134.928 309.488C134.547 309.925 134.578 310.602 135.011 310.987L135 310.998Z" fill="#EDB691"/>
</g>
<path d="M165.109 391.27C165.109 397.469 170.141 402.496 176.347 402.496C182.552 402.496 187.584 397.469 187.584 391.27C187.584 385.07 182.552 380.043 176.347 380.043C170.141 380.043 165.109 385.07 165.109 391.27Z" fill="#4d4d4d"/>
<path d="M171.12 391.267C171.12 394.151 173.461 396.491 176.349 396.491C179.237 396.491 181.578 394.151 181.578 391.267C181.578 388.382 179.237 386.043 176.349 386.043C173.461 386.043 171.12 388.382 171.12 391.267Z" fill="#ff814b"/>
<path d="M165.109 391.27C165.109 397.469 170.141 402.496 176.347 402.496C182.552 402.496 187.584 397.469 187.584 391.27C187.584 385.07 182.552 380.043 176.347 380.043C170.141 380.043 165.109 385.07 165.109 391.27Z" fill="#4d4d4d"/>
<path d="M171.12 391.267C171.12 394.151 173.461 396.491 176.349 396.491C179.237 396.491 181.578 394.151 181.578 391.267C181.578 388.382 179.237 386.043 176.349 386.043C173.461 386.043 171.12 388.382 171.12 391.267Z" fill="#ff814b"/>
<path d="M521.199 225.876C520.927 224.75 519.325 224.75 519.054 225.876L518.701 227.334C518.604 227.736 518.29 228.051 517.888 228.148L516.43 228.5C515.304 228.771 515.304 230.373 516.43 230.645L517.888 230.997C518.29 231.094 518.604 231.408 518.701 231.81L519.054 233.269C519.325 234.395 520.927 234.395 521.199 233.269L521.551 231.81C521.648 231.408 521.962 231.094 522.364 230.997L523.823 230.645C524.948 230.373 524.948 228.771 523.823 228.5L522.364 228.148C521.962 228.051 521.648 227.736 521.551 227.334L521.199 225.876Z" fill="#f26122"/>
<path d="M490.128 264.246H517.624C528.672 264.246 537.643 272.7 537.643 283.111V312.595H490.128V264.246Z" fill="#706f6f"/>
<path d="M485.378 380.041H558.956L559.998 327.289C560.017 326.375 559.869 325.463 559.564 324.595L544.381 281.528C543.203 278.188 539.861 275.93 536.091 275.93H485.378V380.041Z" fill="#ceced1"/>
<path d="M543.712 324.745H505.388C503.011 324.745 501.084 322.82 501.084 320.447V288.489C501.084 285.849 502.006 284.668 505.388 284.668H534.049C536.762 284.668 537.202 285.849 538.082 288.049L547.827 319.186C548.676 321.95 546.606 324.743 543.712 324.743V324.745Z" fill="#eaecf0"/>
<path d="M334.586 399.79C345.873 399.79 355.022 390.393 355.022 378.801C355.022 367.209 345.873 357.812 334.586 357.812C323.299 357.812 314.149 367.209 314.149 378.801C314.149 390.393 323.299 399.79 334.586 399.79Z" fill="#4d4d4d"/>
<path d="M275.391 351.402C275.109 351.402 270.151 351.402 270.151 346.248V224.264C270.151 217.658 271.461 215.016 278.884 215.016H386.3V351.402H275.391Z" fill="#36393d"/>
<path d="M481.77 215.016H386.3V351.402H484.248C487.497 351.402 485.989 351.402 490.129 351.402V222.935C490.129 218.975 489.249 215.016 482.65 215.016H481.77Z" fill="#ff814b"/>
<path d="M330.866 299.406H285.99V345.118H330.866V299.406Z" fill="#ff814b"/>
<path d="M381.019 281.816H323.825V345.109H381.019V281.816Z" fill="#f26122"/>
<path d="M290.391 351.401H484.723C487.707 351.401 486.16 351.401 490.13 351.401V380.435C485.735 380.435 487.707 380.435 484.723 380.435H290.391V351.398V351.401Z" fill="#ff814b"/>
<circle cx="416.65" cy="381.769" r="21.5578" fill="#4d4d4d"/>
<circle cx="417.091" cy="381.325" r="10.5589" fill="#ff814b"/>
<circle cx="526.639" cy="381.769" r="21.5578" fill="#4d4d4d"/>
<circle cx="527.079" cy="381.325" r="10.5589" fill="#ff814b"/>
<g filter="url(#filter2_d_6818_146994)">
<path d="M82.3184 149.352H12.8605C9.62382 149.352 7 151.171 7 153.415V176.051C7 178.295 9.62382 180.114 12.8605 180.114H82.3184C85.5551 180.114 88.1789 178.295 88.1789 176.051V153.415C88.1789 151.171 85.5551 149.352 82.3184 149.352Z" fill="white"/>
</g>
<path d="M19.3923 172.429C23.4037 172.429 26.6557 169.177 26.6557 165.166C26.6557 161.154 23.4037 157.902 19.3923 157.902C15.3808 157.902 12.1289 161.154 12.1289 165.166C12.1289 169.177 15.3808 172.429 19.3923 172.429Z" fill="#bbc0c5"/>
<rect x="30.9277" y="157.039" width="50.4164" height="5.9816" rx="2.9908" fill="#bbc0c5"/>
<rect x="30.9277" y="166.441" width="35.8896" height="5.9816" rx="2.9908" fill="#bbc0c5"/>
<path d="M290.557 351.168H386.421V374.432C386.421 377.746 383.735 380.432 380.421 380.432H296.557C293.243 380.432 290.557 377.746 290.557 374.432V351.168Z" fill="#ceced1"/>
<rect x="317.801" y="172.559" width="34.3094" height="3.0273" fill="#ceced1"/>
<rect x="317.801" y="179.621" width="34.3094" height="3.0273" fill="#ceced1"/>
<rect x="317.801" y="186.688" width="34.3094" height="3.0273" fill="#ceced1"/>
<rect x="366.235" y="172.559" width="34.3094" height="3.0273" fill="#ceced1"/>
<rect x="366.235" y="179.621" width="34.3094" height="3.0273" fill="#ceced1"/>
<rect x="366.235" y="186.688" width="34.3094" height="3.0273" fill="#ceced1"/>
<defs fill="#706f6f">
<filter id="filter0_d_6818_146994" x="372.107" y="105.645" width="105.562" height="105.562" filterUnits="userSpaceOnUse" color-interpolation-filters="sRGB" fill="#706f6f">
<feFlood flood-opacity="0" result="BackgroundImageFix" fill="#706f6f"/>
<feColorMatrix in="SourceAlpha" type="matrix" values="0 0 0 0 0 0 0 0 0 0 0 0 0 0 0 0 0 0 127 0" result="hardAlpha" fill="#706f6f"/>
<feMorphology radius="2" operator="erode" in="SourceAlpha" result="effect1_dropShadow_6818_146994" fill="#706f6f"/>
<feOffset dy="4" fill="#706f6f"/>
<feGaussianBlur stdDeviation="15" fill="#706f6f"/>
<feComposite in2="hardAlpha" operator="out" fill="#706f6f"/>
<feColorMatrix type="matrix" values="0 0 0 0 0.139757 0 0 0 0 0.252894 0 0 0 0 0.479167 0 0 0 0.1 0" fill="#706f6f"/>
<feBlend mode="normal" in2="BackgroundImageFix" result="effect1_dropShadow_6818_146994" fill="#706f6f"/>
<feBlend mode="normal" in="SourceGraphic" in2="effect1_dropShadow_6818_146994" result="shape" fill="#706f6f"/>
</filter>
<filter id="filter1_d_6818_146994" x="118.932" y="52.0547" width="107.271" height="107.27" filterUnits="userSpaceOnUse" color-interpolation-filters="sRGB" fill="#706f6f">
<feFlood flood-opacity="0" result="BackgroundImageFix" fill="#706f6f"/>
<feColorMatrix in="SourceAlpha" type="matrix" values="0 0 0 0 0 0 0 0 0 0 0 0 0 0 0 0 0 0 127 0" result="hardAlpha" fill="#706f6f"/>
<feMorphology radius="2" operator="erode" in="SourceAlpha" result="effect1_dropShadow_6818_146994" fill="#706f6f"/>
<feOffset dy="4" fill="#706f6f"/>
<feGaussianBlur stdDeviation="15" fill="#706f6f"/>
<feComposite in2="hardAlpha" operator="out" fill="#706f6f"/>
<feColorMatrix type="matrix" values="0 0 0 0 0.139757 0 0 0 0 0.252894 0 0 0 0 0.479167 0 0 0 0.1 0" fill="#706f6f"/>
<feBlend mode="normal" in2="BackgroundImageFix" result="effect1_dropShadow_6818_146994" fill="#706f6f"/>
<feBlend mode="normal" in="SourceGraphic" in2="effect1_dropShadow_6818_146994" result="shape" fill="#706f6f"/>
</filter>
<filter id="filter2_d_6818_146994" x="0" y="140.352" width="107.179" height="56.7617" filterUnits="userSpaceOnUse" color-interpolation-filters="sRGB" fill="#706f6f">
<feFlood flood-opacity="0" result="BackgroundImageFix" fill="#706f6f"/>
<feColorMatrix in="SourceAlpha" type="matrix" values="0 0 0 0 0 0 0 0 0 0 0 0 0 0 0 0 0 0 127 0" result="hardAlpha" fill="#706f6f"/>
<feOffset dx="6" dy="4" fill="#706f6f"/>
<feGaussianBlur stdDeviation="6.5" fill="#706f6f"/>
<feComposite in2="hardAlpha" operator="out" fill="#706f6f"/>
<feColorMatrix type="matrix" values="0 0 0 0 0.104618 0 0 0 0 0.465612 0 0 0 0 0.545833 0 0 0 0.09 0" fill="#706f6f"/>
<feBlend mode="normal" in2="BackgroundImageFix" result="effect1_dropShadow_6818_146994" fill="#706f6f"/>
<feBlend mode="normal" in="SourceGraphic" in2="effect1_dropShadow_6818_146994" result="shape" fill="#706f6f"/>
</filter>
<clipPath id="clip0_6818_146994" fill="#706f6f">
<rect width="79.7188" height="154.392" fill="white" transform="translate(73.6025 249.246)"/>
</clipPath>
</defs>
</svg>